<svg id="Group_2379" data-name="Group 2379" xmlns="http://www.w3.org/2000/svg" width="19.005" height="19.005" viewBox="0 0 19.005 19.005">
  <path id="Path_13225" data-name="Path 13225" d="M103.175,217.449a9.5,9.5,0,1,0-10.987,9.387V220.2H89.775v-2.747h2.413v-2.094a3.353,3.353,0,0,1,3.589-3.7,14.614,14.614,0,0,1,2.127.186v2.339h-1.2a1.373,1.373,0,0,0-1.549,1.484v1.783h2.635l-.421,2.747H95.157v6.64A9.5,9.5,0,0,0,103.175,217.449Z" transform="translate(-84.17 -207.946)"/>
  <path id="Path_13226" data-name="Path 13226" d="M131.58,242.85,132,240.1h-2.635v-1.783a1.373,1.373,0,0,1,1.549-1.484h1.2V234.5a14.616,14.616,0,0,0-2.127-.186,3.353,3.353,0,0,0-3.589,3.7V240.1h-2.413v2.747H126.4v6.64a9.606,9.606,0,0,0,2.97,0v-6.64Z" transform="translate(-118.379 -230.601)" fill="#ffad67"/>
</svg>
