<svg xmlns="http://www.w3.org/2000/svg" xmlns:xlink="http://www.w3.org/1999/xlink" width="48" zoomAndPan="magnify" viewBox="0 0 36 34.499999" height="46" preserveAspectRatio="xMidYMid meet" version="1.0"><defs><clipPath id="dfa7f0cedf"><path d="M 3.65625 0.589844 L 34.117188 0.589844 L 34.117188 31.050781 L 3.65625 31.050781 Z M 3.65625 0.589844 " clip-rule="nonzero"/></clipPath><clipPath id="d386326a71"><path d="M 18.886719 0.589844 C 10.476562 0.589844 3.65625 7.410156 3.65625 15.820312 C 3.65625 24.230469 10.476562 31.050781 18.886719 31.050781 C 27.296875 31.050781 34.117188 24.230469 34.117188 15.820312 C 34.117188 7.410156 27.296875 0.589844 18.886719 0.589844 Z M 18.886719 0.589844 " clip-rule="nonzero"/></clipPath><clipPath id="8fb1030a74"><path d="M 7.167969 4.988281 L 28.609375 4.988281 L 28.609375 26.429688 L 7.167969 26.429688 Z M 7.167969 4.988281 " clip-rule="nonzero"/></clipPath></defs><g clip-path="url(#dfa7f0cedf)"><g clip-path="url(#d386326a71)"><path fill="#000000" d="M 3.65625 0.589844 L 34.117188 0.589844 L 34.117188 31.050781 L 3.65625 31.050781 Z M 3.65625 0.589844 " fill-opacity="1" fill-rule="nonzero"/></g></g><g clip-path="url(#8fb1030a74)"><path fill="#000000" d="M 28.828125 23.355469 C 28.828125 25.171875 27.355469 26.648438 25.535156 26.648438 L 10.460938 26.648438 C 8.644531 26.648438 7.171875 25.171875 7.171875 23.355469 L 7.171875 8.28125 C 7.171875 6.460938 8.644531 4.988281 10.460938 4.988281 L 25.535156 4.988281 C 27.355469 4.988281 28.828125 6.460938 28.828125 8.28125 Z M 28.828125 23.355469 " fill-opacity="1" fill-rule="nonzero"/></g><path fill="#ffc670" d="M 15.734375 12.714844 C 15.734375 12.929688 15.691406 13.136719 15.609375 13.335938 C 15.527344 13.53125 15.414062 13.707031 15.261719 13.859375 C 15.109375 14.011719 14.933594 14.128906 14.734375 14.210938 C 14.539062 14.292969 14.332031 14.332031 14.117188 14.332031 C 13.902344 14.332031 13.695312 14.292969 13.496094 14.210938 C 13.300781 14.128906 13.125 14.011719 12.972656 13.859375 C 12.820312 13.707031 12.703125 13.53125 12.621094 13.335938 C 12.539062 13.136719 12.5 12.929688 12.5 12.714844 C 12.5 12.5 12.539062 12.292969 12.621094 12.097656 C 12.703125 11.898438 12.820312 11.722656 12.972656 11.570312 C 13.125 11.421875 13.300781 11.304688 13.496094 11.222656 C 13.695312 11.140625 13.902344 11.097656 14.117188 11.097656 C 14.332031 11.097656 14.539062 11.140625 14.734375 11.222656 C 14.933594 11.304688 15.109375 11.421875 15.261719 11.570312 C 15.414062 11.722656 15.527344 11.898438 15.609375 12.097656 C 15.691406 12.292969 15.734375 12.5 15.734375 12.714844 Z M 15.734375 12.714844 " fill-opacity="1" fill-rule="nonzero"/><path fill="#ffc670" d="M 12.722656 15.527344 L 15.5 15.527344 L 15.5 24.46875 L 12.722656 24.46875 Z M 12.722656 15.527344 " fill-opacity="1" fill-rule="nonzero"/><path fill="#ffc670" d="M 17.25 15.527344 L 19.894531 15.527344 L 19.894531 24.46875 L 17.25 24.46875 Z M 17.25 15.527344 " fill-opacity="1" fill-rule="nonzero"/><path fill="#ffc670" d="M 17.363281 20.289062 L 20.007812 20.289062 L 20.007812 24.46875 L 17.363281 24.46875 Z M 17.363281 20.289062 " fill-opacity="1" fill-rule="nonzero"/><path fill="#ffc670" d="M 20.007812 20.289062 C 20.007812 20.289062 19.96875 19.128906 20.273438 18.523438 C 20.273438 18.523438 20.578125 17.78125 21.539062 17.777344 C 21.539062 17.777344 22.667969 17.582031 22.992188 18.699219 C 22.992188 18.699219 23.113281 19.320312 23.113281 19.582031 C 23.113281 19.84375 23.125 24.46875 23.125 24.46875 L 25.894531 24.46875 L 25.894531 19.347656 C 25.894531 19.347656 26.09375 16.453125 24.359375 15.660156 C 24.359375 15.660156 21.503906 14.378906 19.953125 16.734375 C 19.953125 16.734375 19.613281 16.964844 19.570312 16.3125 C 19.523438 15.660156 19.125 17.316406 19.113281 17.351562 C 19.101562 17.386719 19.570312 20.648438 19.570312 20.648438 Z M 20.007812 20.289062 " fill-opacity="1" fill-rule="nonzero"/></svg>