<svg xmlns="http://www.w3.org/2000/svg" xmlns:xlink="http://www.w3.org/1999/xlink" width="48" zoomAndPan="magnify" viewBox="0 0 36 34.499999" height="46" preserveAspectRatio="xMidYMid meet" version="1.0"><defs><clipPath id="d24ef09dd6"><path d="M 0.257812 0 L 35.742188 0 L 35.742188 34.007812 L 0.257812 34.007812 Z M 0.257812 0 " clip-rule="nonzero"/></clipPath><clipPath id="12cbd6e06f"><path d="M 3.65625 0.589844 L 34.117188 0.589844 L 34.117188 31.050781 L 3.65625 31.050781 Z M 3.65625 0.589844 " clip-rule="nonzero"/></clipPath><clipPath id="9f2f34aabe"><path d="M 18.886719 0.589844 C 10.476562 0.589844 3.65625 7.410156 3.65625 15.820312 C 3.65625 24.230469 10.476562 31.050781 18.886719 31.050781 C 27.296875 31.050781 34.117188 24.230469 34.117188 15.820312 C 34.117188 7.410156 27.296875 0.589844 18.886719 0.589844 Z M 18.886719 0.589844 " clip-rule="nonzero"/></clipPath><clipPath id="a622c48b02"><path d="M 6 4 L 30.40625 4 L 30.40625 28 L 6 28 Z M 6 4 " clip-rule="nonzero"/></clipPath><clipPath id="e430295074"><path d="M 18 19 L 30.40625 19 L 30.40625 28 L 18 28 Z M 18 19 " clip-rule="nonzero"/></clipPath></defs><g clip-path="url(#d24ef09dd6)"><path fill="#ffffff" d="M 0.257812 0 L 35.742188 0 L 35.742188 34.007812 L 0.257812 34.007812 Z M 0.257812 0 " fill-opacity="1" fill-rule="nonzero"/><path fill="#ffffff" d="M 0.257812 0 L 35.742188 0 L 35.742188 34.007812 L 0.257812 34.007812 Z M 0.257812 0 " fill-opacity="1" fill-rule="nonzero"/></g><g clip-path="url(#12cbd6e06f)"><g clip-path="url(#9f2f34aabe)"><path fill="#000000" d="M 3.65625 0.589844 L 34.117188 0.589844 L 34.117188 31.050781 L 3.65625 31.050781 Z M 3.65625 0.589844 " fill-opacity="1" fill-rule="nonzero"/></g></g><g clip-path="url(#a622c48b02)"><path fill="#ffc670" d="M 24.207031 24.90625 L 24.171875 24.914062 C 22.515625 25.589844 20.753906 25.871094 18.878906 25.753906 C 18.183594 25.683594 17.785156 25.628906 17.683594 25.585938 C 17.101562 25.480469 16.496094 25.300781 15.875 25.050781 C 14.988281 24.660156 14.289062 24.253906 13.78125 23.828125 C 13.214844 23.390625 12.65625 22.800781 12.109375 22.054688 C 11.78125 21.609375 11.492188 21.0625 11.242188 20.417969 L 10.890625 19.316406 C 10.71875 18.625 10.660156 17.90625 10.714844 17.15625 L 10.847656 16.054688 C 10.945312 15.5 11.117188 14.941406 11.363281 14.375 C 12.015625 12.957031 12.855469 11.875 13.878906 11.125 L 15.796875 9.765625 C 16.484375 9.394531 17.148438 9.125 17.785156 8.960938 C 19.191406 8.625 20.507812 8.601562 21.742188 8.898438 C 21.902344 8.917969 22.335938 9.058594 23.050781 9.320312 C 23.558594 9.507812 24.144531 9.839844 24.800781 10.3125 C 25.957031 11.242188 26.789062 12.292969 27.292969 13.46875 C 27.785156 14.546875 28.042969 15.792969 28.070312 17.207031 C 28.054688 18.746094 27.679688 20.273438 26.949219 21.792969 C 25.996094 23.546875 25.136719 24.613281 24.371094 24.980469 C 26.25 23.78125 27.382812 22.917969 27.765625 22.390625 C 28.316406 21.761719 28.671875 21.3125 28.835938 21.035156 C 29.273438 20.382812 29.628906 19.691406 29.902344 18.953125 C 30.351562 17.898438 30.570312 16.484375 30.5625 14.710938 C 30.503906 13.472656 30.238281 12.300781 29.773438 11.191406 C 28.570312 8.488281 26.773438 6.546875 24.382812 5.371094 C 21.71875 4.015625 18.785156 3.714844 15.578125 4.460938 C 14.285156 4.773438 12.910156 5.375 11.445312 6.265625 C 9.871094 7.488281 8.625 8.996094 7.707031 10.796875 C 6.082031 14.199219 5.890625 17.507812 7.132812 20.722656 C 8.625 24.265625 11.199219 26.527344 14.851562 27.503906 C 16.820312 27.945312 18.667969 27.910156 20.390625 27.390625 C 21.542969 27.03125 22.492188 26.585938 23.230469 26.050781 C 23.53125 25.847656 23.828125 25.605469 24.128906 25.335938 C 24.210938 25.265625 24.234375 25.121094 24.207031 24.90625 " fill-opacity="1" fill-rule="nonzero"/></g><g clip-path="url(#e430295074)"><path fill="#ffc670" d="M 20.800781 19.902344 C 19.863281 19.871094 18.882812 20.644531 18.882812 20.644531 C 19.875 20.914062 21.042969 21.339844 21.550781 21.9375 C 21.710938 22.125 21.875 22.3125 21.992188 22.542969 C 22.597656 23.742188 22.878906 24.945312 23.589844 25.5 C 27.164062 28.289062 29.949219 26.839844 30.714844 26.757812 L 30.652344 26.746094 C 29.878906 26.597656 26.902344 25.605469 25.945312 23.585938 C 25.398438 22.4375 23.726562 21.1875 23.726562 21.1875 C 23.335938 20.839844 22.925781 20.550781 22.492188 20.339844 C 21.875 20.042969 21.316406 19.96875 20.832031 19.90625 Z M 20.800781 19.902344 " fill-opacity="1" fill-rule="nonzero"/></g></svg>