<svg xmlns="http://www.w3.org/2000/svg" width="20" height="19" viewBox="0 0 20 19">
  <g id="Group_2376" data-name="Group 2376" transform="translate(0 -0.382)">
    <ellipse id="Ellipse_79" data-name="Ellipse 79" cx="10" cy="9.5" rx="10" ry="9.5" transform="translate(0 0.382)"/>
    <g id="Group_2341" data-name="Group 2341" transform="translate(3.886 5.325)">
      <g id="Group_2340" data-name="Group 2340">
        <path id="Path_13220" data-name="Path 13220" d="M1011.084,253.316a7.131,7.131,0,0,0,7.179-7.179q0-.164-.007-.326a5.134,5.134,0,0,0,1.259-1.306,5.038,5.038,0,0,1-1.449.4,2.533,2.533,0,0,0,1.11-1.4,5.06,5.06,0,0,1-1.6.613,2.525,2.525,0,0,0-4.3,2.3,7.164,7.164,0,0,1-5.2-2.636,2.525,2.525,0,0,0,.781,3.368,2.5,2.5,0,0,1-1.143-.316c0,.011,0,.021,0,.032a2.524,2.524,0,0,0,2.024,2.474,2.52,2.52,0,0,1-1.139.043,2.526,2.526,0,0,0,2.357,1.753,5.064,5.064,0,0,1-3.134,1.08,5.154,5.154,0,0,1-.6-.035,7.143,7.143,0,0,0,3.868,1.133" transform="translate(-1007.216 -243.321)" fill="#ffb36f"/>
      </g>
    </g>
  </g>
</svg>
