<svg xmlns="http://www.w3.org/2000/svg" xmlns:xlink="http://www.w3.org/1999/xlink" width="48" zoomAndPan="magnify" viewBox="0 0 36 34.499999" height="46" preserveAspectRatio="xMidYMid meet" version="1.0"><defs><clipPath id="a07bca00a0"><path d="M 0.257812 0 L 35.742188 0 L 35.742188 34.007812 L 0.257812 34.007812 Z M 0.257812 0 " clip-rule="nonzero"/></clipPath><clipPath id="43262afee0"><path d="M 3.65625 0.589844 L 34.117188 0.589844 L 34.117188 31.050781 L 3.65625 31.050781 Z M 3.65625 0.589844 " clip-rule="nonzero"/></clipPath><clipPath id="7db710ba05"><path d="M 18.886719 0.589844 C 10.476562 0.589844 3.65625 7.410156 3.65625 15.820312 C 3.65625 24.230469 10.476562 31.050781 18.886719 31.050781 C 27.296875 31.050781 34.117188 24.230469 34.117188 15.820312 C 34.117188 7.410156 27.296875 0.589844 18.886719 0.589844 Z M 18.886719 0.589844 " clip-rule="nonzero"/></clipPath><clipPath id="744daf890e"><path d="M 5.285156 2.21875 L 32.636719 2.21875 L 32.636719 29.570312 L 5.285156 29.570312 Z M 5.285156 2.21875 " clip-rule="nonzero"/></clipPath></defs><g clip-path="url(#a07bca00a0)"><path fill="#ffffff" d="M 0.257812 0 L 35.742188 0 L 35.742188 34.007812 L 0.257812 34.007812 Z M 0.257812 0 " fill-opacity="1" fill-rule="nonzero"/><path fill="#ffffff" d="M 0.257812 0 L 35.742188 0 L 35.742188 34.007812 L 0.257812 34.007812 Z M 0.257812 0 " fill-opacity="1" fill-rule="nonzero"/></g><g clip-path="url(#43262afee0)"><g clip-path="url(#7db710ba05)"><path fill="#000000" d="M 3.65625 0.589844 L 34.117188 0.589844 L 34.117188 31.050781 L 3.65625 31.050781 Z M 3.65625 0.589844 " fill-opacity="1" fill-rule="nonzero"/></g></g><g clip-path="url(#744daf890e)"><path fill="#ffc670" d="M 27.046875 15.199219 C 27.046875 13.878906 26.882812 12.554688 26.882812 12.554688 C 26.882812 12.554688 26.722656 11.429688 26.234375 10.9375 C 25.613281 10.285156 24.917969 10.28125 24.601562 10.246094 C 22.316406 10.078125 18.890625 10.078125 18.890625 10.078125 L 18.882812 10.078125 C 18.882812 10.078125 15.457031 10.078125 13.171875 10.246094 C 12.851562 10.28125 12.15625 10.285156 11.535156 10.9375 C 11.046875 11.429688 10.886719 12.554688 10.886719 12.554688 C 10.886719 12.554688 10.726562 13.878906 10.726562 15.199219 L 10.726562 16.4375 C 10.726562 17.757812 10.886719 19.078125 10.886719 19.078125 C 10.886719 19.078125 11.046875 20.203125 11.535156 20.699219 C 12.15625 21.347656 12.972656 21.328125 13.335938 21.394531 C 14.640625 21.519531 18.886719 21.558594 18.886719 21.558594 C 18.886719 21.558594 22.316406 21.554688 24.601562 21.390625 C 24.917969 21.351562 25.613281 21.347656 26.234375 20.699219 C 26.722656 20.203125 26.882812 19.078125 26.882812 19.078125 C 26.882812 19.078125 27.046875 17.757812 27.046875 16.4375 Z M 32.488281 15.820312 C 32.488281 23.332031 26.398438 29.421875 18.886719 29.421875 C 11.375 29.421875 5.285156 23.332031 5.285156 15.820312 C 5.285156 8.308594 11.375 2.21875 18.886719 2.21875 C 26.398438 2.21875 32.488281 8.308594 32.488281 15.820312 Z M 17.199219 13.351562 L 21.609375 15.652344 L 17.199219 17.9375 Z M 17.199219 13.351562 " fill-opacity="1" fill-rule="evenodd"/></g></svg>